Coordinates
version=1
nRows=14
nColumns=38
inDegrees=no

Units are S.I. units (second, meters, Newtons, ...)
If the header above contains a line with 'inDegrees', this indicates whether rotational values are in degrees (yes) or radians (no).

endheader
time	pelvis_tilt	pelvis_list	pelvis_rotation	pelvis_tx	pelvis_ty	pelvis_tz	hip_flexion_r	hip_adduction_r	hip_rotation_r	knee_angle_r	ankle_angle_r	subtalar_angle_r	mtp_angle_r	hip_flexion_l	hip_adduction_l	hip_rotation_l	knee_angle_l	ankle_angle_l	subtalar_angle_l	mtp_angle_l	lumbar_extension	lumbar_bending	lumbar_rotation	arm_flex_r	arm_add_r	arm_rot_r	elbow_flex_r	pro_sup_r	wrist_flex_r	wrist_dev_r	arm_flex_l	arm_add_l	arm_rot_l	elbow_flex_l	pro_sup_l	wrist_flex_l	wrist_dev_l
3.67	1.03245	1.49661	0.600031	0.625087	1.06741	1.01695	0.493974	0.00963063	-0.115325	0.577815	-0.226107	0	0	-0.293666	-0.0265096	-0.185692	0.0886101	-0.316192	0	0	-0.0894325	0.118541	-0.132071	0.713915	-0.516801	0.833463	1.48783	1.5708	0	0	0.285064	-0.262433	0.331264	1.53963	1.5708	0	0
3.68	1.07357	1.49205	0.56023	0.625892	1.07561	1.01684	0.492034	0.0178891	-0.108086	0.588434	-0.236985	0	0	-0.291945	-0.0347098	-0.194874	0.111027	-0.309485	0	0	-0.0875535	0.128422	-0.131839	0.708107	-0.519242	0.831143	1.49662	1.5708	0	0	0.27615	-0.259475	0.324563	1.54432	1.5708	0	0
3.69	1.11125	1.48852	0.522624	0.626871	1.08387	1.01689	0.489918	0.0259157	-0.0950004	0.600634	-0.243346	0	0	-0.290982	-0.0417775	-0.204603	0.133425	-0.304274	0	0	-0.0863633	0.136882	-0.130698	0.702146	-0.520814	0.828776	1.50452	1.5708	0	0	0.267216	-0.256823	0.317746	1.54872	1.5708	0	0
3.7	1.15301	1.48635	0.480627	0.62798	1.09219	1.01717	0.485822	0.0338445	-0.0765407	0.612507	-0.246718	0	0	-0.290936	-0.0481295	-0.214559	0.156835	-0.300044	0	0	-0.0865379	0.143695	-0.129713	0.696299	-0.521152	0.826437	1.51115	1.5708	0	0	0.258196	-0.254941	0.310827	1.55321	1.5708	0	0
3.71	1.19955	1.48521	0.434533	0.629098	1.1005	1.01771	0.479428	0.0407709	-0.058636	0.623684	-0.247282	0	0	-0.291529	-0.053954	-0.222026	0.180339	-0.298291	0	0	-0.0878475	0.149275	-0.129701	0.691199	-0.52074	0.824911	1.51649	1.5708	0	0	0.2496	-0.253534	0.304261	1.55727	1.5708	0	0
3.72	1.24745	1.48419	0.387893	0.630204	1.10881	1.01846	0.471221	0.0467474	-0.0464139	0.632396	-0.245407	0	0	-0.29145	-0.0601335	-0.227093	0.205252	-0.298074	0	0	-0.0895606	0.154469	-0.130869	0.68627	-0.519515	0.823526	1.5209	1.5708	0	0	0.24107	-0.252697	0.297742	1.56128	1.5708	0	0
3.73	1.30076	1.48292	0.336423	0.631425	1.11718	1.01942	0.460772	0.0520697	-0.0426521	0.636966	-0.242188	0	0	-0.290753	-0.0674341	-0.230202	0.232404	-0.298633	0	0	-0.0916566	0.159476	-0.132754	0.680868	-0.517471	0.821833	1.52434	1.5708	0	0	0.232637	-0.2523	0.291396	1.56493	1.5708	0	0
3.74	1.35015	1.48143	0.289283	0.632858	1.12557	1.02049	0.449217	0.0565498	-0.0468976	0.637721	-0.23903	0	0	-0.288323	-0.0756751	-0.23142	0.262396	-0.300286	0	0	-0.0930747	0.163877	-0.134674	0.674796	-0.515116	0.819989	1.52695	1.5708	0	0	0.224806	-0.252737	0.286472	1.56777	1.5708	0	0
3.75	1.39411	1.48049	0.247999	0.634394	1.13385	1.02161	0.437101	0.0597449	-0.0567645	0.636744	-0.235715	0	0	-0.283885	-0.0837542	-0.23031	0.295519	-0.303013	0	0	-0.0937104	0.167045	-0.136127	0.668289	-0.513056	0.818066	1.52876	1.5708	0	0	0.218494	-0.254005	0.283942	1.56901	1.5708	0	0
3.76	1.44036	1.48056	0.204596	0.635961	1.142	1.02279	0.423838	0.0615859	-0.0684177	0.635219	-0.231678	0	0	-0.277849	-0.0911133	-0.227624	0.332328	-0.306794	0	0	-0.09398	0.168645	-0.13597	0.660422	-0.511795	0.814645	1.52981	1.5708	0	0	0.214802	-0.255359	0.284696	1.56744	1.5708	0	0
3.77	1.67574	1.48771	-0.025821	0.638749	1.14898	1.02392	0.396031	0.0578446	-0.0793284	0.643104	-0.215607	0	0	-0.286359	-0.0955878	-0.225046	0.375203	-0.309932	0	0	0.015883	0.157799	0.160232	0.266111	-0.652239	0.407996	1.59039	1.5708	0	0	0.561876	-0.162922	0.869368	1.15982	1.5708	0	0
3.78	1.69335	1.48837	-0.0411142	0.64035	1.15696	1.02502	0.384622	0.0586599	-0.0872876	0.641131	-0.211033	0	0	-0.27411	-0.100855	-0.217762	0.4165	-0.315551	0	0	0.0194236	0.156184	0.166836	0.248186	-0.649017	0.392671	1.59296	1.5708	0	0	0.566187	-0.161213	0.884269	1.15231	1.5708	0	0
3.79	1.70829	1.48914	-0.0541373	0.641874	1.16472	1.02615	0.37327	0.0596832	-0.0933715	0.638391	-0.20561	0	0	-0.259303	-0.105635	-0.210211	0.461177	-0.322532	0	0	0.0211221	0.154039	0.170771	0.235697	-0.645635	0.382286	1.5949	1.5708	0	0	0.568506	-0.161563	0.89395	1.14902	1.5708	0	0
3.8	1.71737	1.48984	-0.061916	0.643326	1.17233	1.02733	0.362145	0.0612484	-0.0973017	0.634571	-0.200177	0	0	-0.242294	-0.109784	-0.202332	0.507617	-0.331044	0	0	0.0198755	0.15177	0.169691	0.23196	-0.641252	0.380187	1.5961	1.5708	0	0	0.565295	-0.165643	0.891976	1.1538	1.5708	0	0
